<svg width="62" height="18" viewBox="0 0 62 18" fill="none" xmlns="http://www.w3.org/2000/svg">
<path fill-rule="evenodd" clip-rule="evenodd" d="M29.6323 13.521C28.2728 13.521 27.1706 12.4117 27.1708 11.0433C27.1708 9.67463 28.2728 8.56555 29.6323 8.56555C30.9919 8.56555 32.0939 9.67463 32.0939 11.0433C32.0939 12.4117 30.9917 13.521 29.6323 13.521ZM36.0113 10.9035C35.9372 7.41991 33.111 4.61877 29.6325 4.61877C26.1075 4.61877 23.25 7.49498 23.25 11.0432C23.2498 14.5913 26.1073 17.4679 29.6323 17.4679C30.7459 17.4679 31.7926 17.18 32.7038 16.6752V16.948C32.7038 17.2814 32.9902 17.5513 33.3432 17.5513H35.3753C35.7283 17.5513 36.0147 17.2814 36.0147 16.948V10.9364C36.0147 10.925 36.0119 10.9144 36.0113 10.9035Z" fill="white"/>
<path fill-rule="evenodd" clip-rule="evenodd" d="M12.7647 0.66231V3.65615C12.7647 4.07774 12.53 4.31866 12.1189 4.31866H8.49935V16.8888C8.49935 17.3106 8.26463 17.5513 7.85331 17.5513H4.92211C4.51059 17.5513 4.27607 17.3106 4.27607 16.8888V4.31866H0.646043C0.234726 4.31866 0 4.07774 0 3.65615V0.66231C0 0.240509 0.234726 0 0.646043 0H8.49935H12.1189C12.53 0 12.7647 0.240509 12.7647 0.66231Z" fill="white"/>
<path fill-rule="evenodd" clip-rule="evenodd" d="M20.6228 4.92494L20.6223 4.92514C19.3628 5.13118 18.3532 5.8544 17.8683 7.06116V5.24724C17.8683 4.90006 17.5847 4.61877 17.2352 4.61877H14.3098C13.96 4.61877 13.6766 4.90006 13.6766 5.24724L13.6765 16.9229C13.6765 17.2698 13.96 17.5513 14.3098 17.5513H17.2352C17.5847 17.5513 17.8683 17.2698 17.8683 16.9229V12.1267C18.2648 10.6422 19.5156 10.0854 20.8061 10.1217C21.2146 10.1217 21.4265 9.86346 21.4265 9.35961V5.67384C21.4265 5.15646 21.1448 4.82441 20.6228 4.92494Z" fill="white"/>
<path fill-rule="evenodd" clip-rule="evenodd" d="M55.6176 13.5788C54.2581 13.5788 53.1559 12.4623 53.1561 11.085C53.1561 9.70767 54.2581 8.59119 55.6176 8.59119C56.9772 8.59119 58.0792 9.70767 58.0792 11.085C58.0792 12.4623 56.977 13.5788 55.6176 13.5788ZM55.6179 4.61877C52.093 4.61877 49.2353 7.51366 49.2353 11.0849C49.2351 14.656 52.0926 17.5513 55.6175 17.5513C59.1425 17.5513 61.9998 14.656 62 11.0849C62.0002 7.51366 59.1427 4.61877 55.6179 4.61877Z" fill="white"/>
<path fill-rule="evenodd" clip-rule="evenodd" d="M47.8677 5.04877C47.8677 4.68837 47.5796 4.396 47.2245 4.396H45.0237V2.02483C45.0237 1.67172 44.7295 1.38562 44.3667 1.38562H41.3321C40.9695 1.38562 40.6753 1.67192 40.6753 2.02483V4.39579H38.4814C38.1261 4.39579 37.8383 4.68837 37.8383 5.04877V8.06482C37.8383 8.42542 38.1263 8.71759 38.4814 8.71759H40.6753V16.9121C40.6753 17.265 40.9693 17.5513 41.3321 17.5513L44.3667 17.5511C44.7293 17.5511 45.0235 17.265 45.0235 16.9119L45.0237 8.71759H47.2247C47.5798 8.71759 47.8677 8.42542 47.8677 8.06482V5.04877Z" fill="white"/>
</svg>
